<svg width="30" height="30" viewBox="0 0 30 30" fill="none" xmlns="http://www.w3.org/2000/svg">
<path d="M26.875 17.5C26.5298 17.5 26.25 17.7798 26.25 18.125V18.75C26.25 20.858 25.2073 22.7224 23.6037 23.8528C23.228 24.1176 23.0161 24.5757 23.128 25.0215L23.4379 26.2566C23.5964 26.888 23.119 27.5 22.468 27.5H22.0308C21.5719 27.5 21.1719 27.1877 21.0606 26.7425L20.8144 25.7575C20.7031 25.3123 20.3031 25 19.8442 25H10.1558C9.69691 25 9.29693 25.3123 9.18563 25.7575L8.93937 26.7425C8.82807 27.1877 8.42809 27.5 7.96922 27.5H7.53198C6.88103 27.5 6.4036 26.888 6.56205 26.2566L6.87183 25.0222C6.98381 24.576 6.77154 24.1178 6.39536 23.853C5.68775 23.3548 5.08916 22.713 4.64049 21.9664C4.05685 20.9951 3.74898 19.8831 3.75 18.75V18.125C3.75 17.7798 3.47018 17.5 3.125 17.5C2.77982 17.5 2.5 17.2202 2.5 16.875V16C2.5 15.4477 2.94772 15 3.5 15H24C24.5523 15 25 14.5523 25 14V6.25C25 5.91848 24.8683 5.60054 24.6339 5.36612C24.3995 5.1317 24.0815 5 23.75 5C23.3556 5 23.0209 5.16924 22.79 5.43548C22.5381 5.72585 22.6957 6.13914 22.9385 6.43712C23.2529 6.82283 23.4847 7.27331 23.6182 7.76168C23.7639 8.2944 23.3023 8.75 22.75 8.75H17.25C16.6977 8.75 16.237 8.29454 16.3825 7.76178C16.5529 7.13817 16.8832 6.56346 17.3483 6.09835C18.0516 5.39509 19.0054 5 20 5C20.1274 5 20.2398 4.91917 20.289 4.80173C20.8537 3.45526 22.1881 2.5 23.75 2.5C24.7446 2.5 25.6984 2.89509 26.4017 3.59835C27.1049 4.30161 27.5 5.25544 27.5 6.25V16.875C27.5 17.2202 27.2202 17.5 26.875 17.5Z" fill="#0061DF"/>
</svg>
