<svg width="30" height="30" viewBox="0 0 30 30" fill="none" xmlns="http://www.w3.org/2000/svg">
<path d="M23.75 8.75H16.75C15.0931 8.75 13.75 10.0931 13.75 11.75V14.5C13.75 16.1569 12.4069 17.5 10.75 17.5H6.75C5.09315 17.5 3.75 16.1569 3.75 14.5V7.5C3.75 6.80964 3.19036 6.25 2.5 6.25C1.80964 6.25 1.25 6.80964 1.25 7.5V23.75C1.25 24.4404 1.80964 25 2.5 25C3.19036 25 3.75 24.4404 3.75 23.75V23.125C3.75 22.0895 4.58947 21.25 5.625 21.25H24.375C25.4105 21.25 26.25 22.0895 26.25 23.125V23.75C26.25 24.4404 26.8096 25 27.5 25C28.1904 25 28.75 24.4404 28.75 23.75V13.75C28.75 12.4239 28.2232 11.1521 27.2855 10.2145C26.3478 9.27678 25.0761 8.75 23.75 8.75ZM8.75 16.25C9.74456 16.25 10.6984 15.8549 11.4016 15.1517C12.1049 14.4484 12.5 13.4946 12.5 12.5C12.5 11.5054 12.1049 10.5516 11.4016 9.84835C10.6984 9.14509 9.74456 8.75 8.75 8.75C7.75544 8.75 6.80161 9.14509 6.09835 9.84835C5.39509 10.5516 5 11.5054 5 12.5C5 13.4946 5.39509 14.4484 6.09835 15.1517C6.80161 15.8549 7.75544 16.25 8.75 16.25Z" fill="#0061DF"/>
</svg>
