<svg width="32" height="32" viewBox="0 0 32 32" fill="none" xmlns="http://www.w3.org/2000/svg">
<g clip-path="url(#clip0_1_718)">
<mask id="mask0_1_718" style="mask-type:alpha" maskUnits="userSpaceOnUse" x="2" y="2" width="28" height="28">
<path d="M26.6667 2.66675H5.33335C3.86669 2.66675 2.66669 3.86675 2.66669 5.33341V26.6667C2.66669 28.1334 3.86669 29.3334 5.33335 29.3334H26.6667C28.1334 29.3334 29.3334 28.1334 29.3334 26.6667V5.33341C29.3334 3.86675 28.1334 2.66675 26.6667 2.66675ZM25.3334 5.33341V9.33341H22.6667C21.8667 9.33341 21.3334 9.86675 21.3334 10.6667V13.3334H25.3334V17.3334H21.3334V26.6667H17.3334V17.3334H14.6667V13.3334H17.3334V10.0001C17.3334 7.46675 19.4667 5.33341 22 5.33341H25.3334Z" fill="#050000"/>
</mask>
<g mask="url(#mask0_1_718)">
<rect width="32" height="32" fill="#2B2B2B"/>
</g>
</g>
<defs>
<clipPath id="clip0_1_718">
<rect width="32" height="32" fill="white"/>
</clipPath>
</defs>
</svg>
