<svg width="25" height="24" viewBox="0 0 25 24" fill="none" xmlns="http://www.w3.org/2000/svg">
<path d="M16.1689 5.5L16.1686 5.5C15.5961 5.49952 15.0292 5.61335 14.5012 5.83483C13.9732 6.05631 13.4947 6.38097 13.0939 6.78979L13.092 6.79169L13.092 6.79169L12.3786 7.51155L12.0234 7.86988L11.6683 7.51155L10.9549 6.79169L10.9535 6.79033C10.552 6.38213 10.0733 6.05792 9.54526 5.83662C9.0172 5.61532 8.45037 5.50135 7.87781 5.50135C7.30525 5.50135 6.73842 5.61532 6.21036 5.83662C5.6824 6.05788 5.20375 6.38201 4.80231 6.79011L16.1689 5.5ZM16.1689 5.5C16.7416 5.50016 17.3084 5.61432 17.8365 5.83583C18.3646 6.05734 18.8433 6.38177 19.2446 6.79019C20.0642 7.62455 20.5234 8.74735 20.5234 9.91691C20.5234 11.0862 20.0644 12.2087 19.2452 13.043C19.245 13.0432 19.2448 13.0435 19.2446 13.0437L12.0234 20.3567M16.1689 5.5L12.0234 20.3567M12.0234 20.3567L4.80231 13.0437C4.80214 13.0435 4.80197 13.0434 4.8018 13.0432C3.98249 12.2089 3.52344 11.0863 3.52344 9.91691C3.52344 8.74735 3.98265 7.62455 4.80222 6.7902L12.0234 20.3567Z" stroke="#0061DF"/>
</svg>
