<svg width="30" height="30" viewBox="0 0 30 30" fill="none" xmlns="http://www.w3.org/2000/svg">
<path d="M23.75 24C23.75 24.5523 23.3023 25 22.75 25H22.25C21.6977 25 21.25 24.5523 21.25 24V14.75C21.25 14.1977 20.8023 13.75 20.25 13.75H9.75C9.19772 13.75 8.75 14.1977 8.75 14.75V24C8.75 24.5523 8.30228 25 7.75 25H7.25C6.69772 25 6.25 24.5523 6.25 24V11.8303C6.25 11.4715 6.44229 11.1401 6.75386 10.9621L14.5039 6.53351C14.8113 6.35783 15.1887 6.35783 15.4961 6.53351L23.2461 10.9621C23.5577 11.1401 23.75 11.4715 23.75 11.8303V24ZM10 16C10 15.4477 10.4477 15 11 15H19C19.5523 15 20 15.4477 20 16V16.5C20 17.0523 19.5523 17.5 19 17.5H11C10.4477 17.5 10 17.0523 10 16.5V16ZM10 19.75C10 19.1977 10.4477 18.75 11 18.75H19C19.5523 18.75 20 19.1977 20 19.75V20.25C20 20.8023 19.5523 21.25 19 21.25H11C10.4477 21.25 10 20.8023 10 20.25V19.75ZM19 22.5C19.5523 22.5 20 22.9477 20 23.5V24C20 24.5523 19.5523 25 19 25H11C10.4477 25 10 24.5523 10 24V23.5C10 22.9477 10.4477 22.5 11 22.5H19Z" fill="#0061DF"/>
</svg>
