<svg width="1920" height="850" viewBox="0 0 1920 850" fill="none" xmlns="http://www.w3.org/2000/svg">
<g clip-path="url(#clip0_0_671)">
<path d="M1920 -30H0V850H1920V-30Z" fill="white"/>
<path d="M0 476.942L40 466.442C80 455.942 160 434.942 240 431.642C320 428.242 400 442.642 480 447.142C560 451.642 640 446.242 720 436.942C800 427.642 880 414.242 960 423.442C1040 432.642 1120 464.242 1200 457.642C1280 450.942 1360 405.942 1440 402.242C1520 398.642 1600 436.242 1680 448.742C1760 461.242 1840 448.642 1880 442.242L1920 435.942V849.942H1880C1840 849.942 1760 849.942 1680 849.942C1600 849.942 1520 849.942 1440 849.942C1360 849.942 1280 849.942 1200 849.942C1120 849.942 1040 849.942 960 849.942C880 849.942 800 849.942 720 849.942C640 849.942 560 849.942 480 849.942C400 849.942 320 849.942 240 849.942C160 849.942 80 849.942 40 849.942H0V476.942Z" fill="white"/>
<path d="M0 502.942L40 514.942C80 526.942 160 550.942 240 564.142C320 577.242 400 579.642 480 563.942C560 548.242 640 514.642 720 512.742C800 510.942 880 540.942 960 558.242C1040 575.642 1120 580.242 1200 561.942C1280 543.642 1360 502.242 1440 481.742C1520 461.242 1600 461.642 1680 474.742C1760 487.942 1840 513.942 1880 526.942L1920 539.942V849.942H1880C1840 849.942 1760 849.942 1680 849.942C1600 849.942 1520 849.942 1440 849.942C1360 849.942 1280 849.942 1200 849.942C1120 849.942 1040 849.942 960 849.942C880 849.942 800 849.942 720 849.942C640 849.942 560 849.942 480 849.942C400 849.942 320 849.942 240 849.942C160 849.942 80 849.942 40 849.942H0V502.942Z" fill="#F8F8F8"/>
<path d="M0 585.942L40 579.642C80 573.242 160 560.642 240 556.642C320 552.642 400 557.242 480 573.442C560 589.642 640 617.242 720 616.242C800 615.242 880 585.642 960 569.242C1040 552.942 1120 549.942 1200 560.242C1280 570.642 1360 594.242 1440 592.942C1520 591.642 1600 565.242 1680 554.942C1760 544.642 1840 550.242 1880 553.142L1920 555.942V849.942H1880C1840 849.942 1760 849.942 1680 849.942C1600 849.942 1520 849.942 1440 849.942C1360 849.942 1280 849.942 1200 849.942C1120 849.942 1040 849.942 960 849.942C880 849.942 800 849.942 720 849.942C640 849.942 560 849.942 480 849.942C400 849.942 320 849.942 240 849.942C160 849.942 80 849.942 40 849.942H0V585.942Z" fill="#F2F2F2"/>
<path d="M0 667.942L40 667.642C80 667.242 160 666.642 240 664.742C320 662.942 400 659.942 480 657.942C560 655.942 640 654.942 720 666.742C800 678.642 880 703.242 960 705.942C1040 708.642 1120 689.242 1200 684.442C1280 679.642 1360 689.242 1440 689.242C1520 689.242 1600 679.642 1680 677.742C1760 675.942 1840 681.942 1880 684.942L1920 687.942V849.942H1880C1840 849.942 1760 849.942 1680 849.942C1600 849.942 1520 849.942 1440 849.942C1360 849.942 1280 849.942 1200 849.942C1120 849.942 1040 849.942 960 849.942C880 849.942 800 849.942 720 849.942C640 849.942 560 849.942 480 849.942C400 849.942 320 849.942 240 849.942C160 849.942 80 849.942 40 849.942H0V667.942Z" fill="#EBEBEB"/>
<path d="M0 707.942L40 707.642C80 707.242 160 706.642 240 710.942C320 715.242 400 724.642 480 735.942C560 747.242 640 760.642 720 756.142C800 751.642 880 729.242 960 732.142C1040 734.942 1120 762.942 1200 776.742C1280 790.642 1360 790.242 1440 787.942C1520 785.642 1600 781.242 1680 777.442C1760 773.642 1840 770.242 1880 768.642L1920 766.942V849.942H1880C1840 849.942 1760 849.942 1680 849.942C1600 849.942 1520 849.942 1440 849.942C1360 849.942 1280 849.942 1200 849.942C1120 849.942 1040 849.942 960 849.942C880 849.942 800 849.942 720 849.942C640 849.942 560 849.942 480 849.942C400 849.942 320 849.942 240 849.942C160 849.942 80 849.942 40 849.942H0V707.942Z" fill="#E5E5E5"/>
</g>
<defs>
<clipPath id="clip0_0_671">
<rect width="1920" height="850" fill="white"/>
</clipPath>
</defs>
</svg>
