<svg width="32" height="32" viewBox="0 0 32 32" fill="none" xmlns="http://www.w3.org/2000/svg">
<g clip-path="url(#clip0_1_726)">
<mask id="mask0_1_726" style="mask-type:alpha" maskUnits="userSpaceOnUse" x="2" y="2" width="28" height="28">
<path d="M29.3334 5.3225C29.3334 3.85549 28.1441 2.66675 26.6771 2.66675H5.32294C3.85593 2.66675 2.66669 3.8555 2.66669 5.3225C2.66669 5.71527 2.66669 6.13587 2.66669 6.573V26.6771C2.66669 28.1442 3.85544 29.3334 5.32245 29.3334C5.71522 29.3334 6.13581 29.3334 6.57294 29.3334H25.4271C25.8642 29.3334 26.2848 29.3334 26.6776 29.3334C28.1446 29.3334 29.3334 28.1442 29.3334 26.6771V6.573C29.3334 6.13587 29.3334 5.71527 29.3334 5.3225ZM16.0521 22.9792C12.1749 22.9792 9.02085 19.8251 9.02085 15.948C9.02085 12.0708 12.1749 8.91675 16.0521 8.91675C19.9293 8.91675 23.0834 12.0708 23.0834 15.948C23.0834 19.8251 19.9293 22.9792 16.0521 22.9792ZM23.8646 10.4792C22.5723 10.4792 21.5209 9.42781 21.5209 8.1355C21.5209 6.84318 22.5723 5.79175 23.8646 5.79175C25.1569 5.79175 26.2084 6.84318 26.2084 8.1355C26.2084 9.42781 25.1569 10.4792 23.8646 10.4792Z" fill="black"/>
<path d="M16.0521 11.9897C13.8697 11.9897 12.0938 13.7656 12.0938 15.948C12.0938 18.1304 13.8697 19.9063 16.0521 19.9063C18.2345 19.9063 20.0104 18.1304 20.0104 15.948C20.0104 13.7656 18.2345 11.9897 16.0521 11.9897Z" fill="black"/>
</mask>
<g mask="url(#mask0_1_726)">
<rect width="32" height="32" fill="#2B2B2B"/>
</g>
</g>
<defs>
<clipPath id="clip0_1_726">
<rect width="32" height="32" fill="white"/>
</clipPath>
</defs>
</svg>
