<svg width="30" height="30" viewBox="0 0 30 30" fill="none" xmlns="http://www.w3.org/2000/svg">
<g clip-path="url(#clip0_3_1517)">
<path fill-rule="evenodd" clip-rule="evenodd" d="M10.3665 15.8837C10.1321 15.6493 10.0005 15.3314 10.0005 14.9999C10.0005 14.6685 10.1321 14.3506 10.3665 14.1162L17.4377 7.04494C17.553 6.92555 17.691 6.83032 17.8435 6.76481C17.996 6.6993 18.16 6.66482 18.326 6.66338C18.4919 6.66194 18.6565 6.69356 18.8102 6.75641C18.9638 6.81926 19.1033 6.91208 19.2207 7.02945C19.3381 7.14681 19.4309 7.28638 19.4937 7.44C19.5566 7.59362 19.5882 7.75822 19.5868 7.92419C19.5853 8.09017 19.5509 8.25419 19.4853 8.4067C19.4198 8.5592 19.3246 8.69713 19.2052 8.81244L13.0177 14.9999L19.2052 21.1874C19.4329 21.4232 19.5589 21.7389 19.5561 22.0667C19.5532 22.3944 19.4218 22.708 19.19 22.9397C18.9582 23.1715 18.6447 23.3029 18.317 23.3058C17.9892 23.3086 17.6735 23.1826 17.4377 22.9549L10.3665 15.8837Z" fill="white"/>
</g>
<defs>
<clipPath id="clip0_3_1517">
<rect width="30" height="30" fill="white"/>
</clipPath>
</defs>
</svg>
