<svg width="32" height="32" viewBox="0 0 32 32" fill="none" xmlns="http://www.w3.org/2000/svg">
<g clip-path="url(#clip0_1_722)">
<mask id="mask0_1_722" style="mask-type:alpha" maskUnits="userSpaceOnUse" x="2" y="2" width="28" height="28">
<path d="M26.6667 2.66675H5.33335C3.86669 2.66675 2.66669 3.86675 2.66669 5.33341V26.6667C2.66669 28.1334 3.86669 29.3334 5.33335 29.3334H26.6667C28.1334 29.3334 29.3334 28.1334 29.3334 26.6667V5.33341C29.3334 3.86675 28.1334 2.66675 26.6667 2.66675ZM10.6667 25.3334H6.66669V13.3334H10.6667V25.3334ZM8.66669 11.0667C7.33335 11.0667 6.26669 10.0001 6.26669 8.66675C6.26669 7.33341 7.33335 6.26675 8.66669 6.26675C10 6.26675 11.0667 7.33341 11.0667 8.66675C11.0667 10.0001 10 11.0667 8.66669 11.0667ZM25.3334 25.3334H21.3334V18.2667C21.3334 17.2001 20.4 16.2667 19.3334 16.2667C18.2667 16.2667 17.3334 17.2001 17.3334 18.2667V25.3334H13.3334V13.3334H17.3334V14.9334C18 13.8667 19.4667 13.0667 20.6667 13.0667C23.2 13.0667 25.3334 15.2001 25.3334 17.7334V25.3334Z" fill="#050000"/>
</mask>
<g mask="url(#mask0_1_722)">
<rect width="32" height="32" fill="#2B2B2B"/>
</g>
</g>
<defs>
<clipPath id="clip0_1_722">
<rect width="32" height="32" fill="white"/>
</clipPath>
</defs>
</svg>
