<svg width="44" height="44" viewBox="0 0 44 44" fill="none" xmlns="http://www.w3.org/2000/svg">
<path d="M22 22.0001C23.0083 22.0001 23.8718 21.6407 24.5905 20.9221C25.3079 20.2046 25.6666 19.3417 25.6666 18.3334C25.6666 17.3251 25.3079 16.4616 24.5905 15.7429C23.8718 15.0255 23.0083 14.6667 22 14.6667C20.9916 14.6667 20.1288 15.0255 19.4113 15.7429C18.6926 16.4616 18.3333 17.3251 18.3333 18.3334C18.3333 19.3417 18.6926 20.2046 19.4113 20.9221C20.1288 21.6407 20.9916 22.0001 22 22.0001ZM22 39.6459C21.7555 39.6459 21.5111 39.6001 21.2666 39.5084C21.0222 39.4167 20.8083 39.2945 20.625 39.1418C16.1639 35.2001 12.8333 31.5414 10.6333 28.1656C8.43331 24.7886 7.33331 21.6334 7.33331 18.7001C7.33331 14.1167 8.80792 10.4654 11.7571 7.74591C14.7051 5.02647 18.1194 3.66675 22 3.66675C25.8805 3.66675 29.2948 5.02647 32.2428 7.74591C35.192 10.4654 36.6666 14.1167 36.6666 18.7001C36.6666 21.6334 35.5666 24.7886 33.3666 28.1656C31.1666 31.5414 27.8361 35.2001 23.375 39.1418C23.1916 39.2945 22.9778 39.4167 22.7333 39.5084C22.4889 39.6001 22.2444 39.6459 22 39.6459Z" fill="#13131A"/>
</svg>
