<svg width="30" height="30" viewBox="0 0 30 30" fill="none" xmlns="http://www.w3.org/2000/svg">
<g clip-path="url(#clip0_3_1481)">
<path fill-rule="evenodd" clip-rule="evenodd" d="M19.6339 14.1162C19.8683 14.3506 19.9999 14.6685 19.9999 15C19.9999 15.3314 19.8683 15.6493 19.6339 15.8837L12.5627 22.955C12.4474 23.0744 12.3094 23.1696 12.1569 23.2351C12.0044 23.3006 11.8404 23.3351 11.6744 23.3365C11.5085 23.338 11.3439 23.3064 11.1902 23.2435C11.0366 23.1807 10.8971 23.0878 10.7797 22.9705C10.6623 22.8531 10.5695 22.7135 10.5067 22.5599C10.4438 22.4063 10.4122 22.2417 10.4136 22.0757C10.4151 21.9098 10.4495 21.7457 10.5151 21.5932C10.5806 21.4407 10.6758 21.3028 10.7952 21.1875L16.9827 15L10.7952 8.81248C10.5675 8.57673 10.4415 8.26098 10.4443 7.93323C10.4472 7.60548 10.5787 7.29197 10.8104 7.06021C11.0422 6.82845 11.3557 6.69699 11.6834 6.69414C12.0112 6.69129 12.3269 6.81728 12.5627 7.04498L19.6339 14.1162Z" fill="white"/>
</g>
<defs>
<clipPath id="clip0_3_1481">
<rect width="30" height="30" fill="white"/>
</clipPath>
</defs>
</svg>
