<svg width="24" height="24" viewBox="0 0 24 24" fill="none" xmlns="http://www.w3.org/2000/svg">
<path d="M8.91429 0.5C11.2785 0.5 13.5459 1.43918 15.2176 3.11093C16.8894 4.78269 17.8286 7.05007 17.8286 9.41429C17.8286 11.4928 17.1116 13.4133 15.9178 14.9356C15.7918 15.0962 15.8004 15.3266 15.9447 15.471C16.0182 15.5444 16.1178 15.5857 16.2217 15.5857H16.6011C16.948 15.5857 17.2806 15.7235 17.5259 15.9688L22.9714 21.4143C23.5395 21.9824 23.5395 22.9034 22.9714 23.4714C22.4034 24.0395 21.4824 24.0395 20.9143 23.4714L15.4688 18.0259C15.2235 17.7806 15.0857 17.448 15.0857 17.1011V16.7215C15.0857 16.6177 15.0445 16.5182 14.9711 16.4448C14.8268 16.3005 14.5962 16.2921 14.4357 16.4183C12.8641 17.6536 10.9202 18.3284 8.91429 18.3286C6.55007 18.3286 4.28269 17.3894 2.61093 15.7176C0.939181 14.0459 0 11.7785 0 9.41429C0 7.05007 0.939181 4.78269 2.61093 3.11093C4.28269 1.43918 6.55007 0.5 8.91429 0.5ZM8.91429 3.24286C5.48571 3.24286 2.74286 5.98571 2.74286 9.41429C2.74286 12.8429 5.48571 15.5857 8.91429 15.5857C12.3429 15.5857 15.0857 12.8429 15.0857 9.41429C15.0857 5.98571 12.3429 3.24286 8.91429 3.24286Z" fill="#0061DF"/>
<path d="M8.91429 0.5C11.2785 0.5 13.5459 1.43918 15.2176 3.11093C16.8894 4.78269 17.8286 7.05007 17.8286 9.41429C17.8286 11.4928 17.1116 13.4133 15.9178 14.9356C15.7918 15.0962 15.8004 15.3266 15.9447 15.471C16.0182 15.5444 16.1178 15.5857 16.2217 15.5857H16.6011C16.948 15.5857 17.2806 15.7235 17.5259 15.9688L22.9714 21.4143C23.5395 21.9824 23.5395 22.9034 22.9714 23.4714C22.4034 24.0395 21.4824 24.0395 20.9143 23.4714L15.4688 18.0259C15.2235 17.7806 15.0857 17.448 15.0857 17.1011V16.7215C15.0857 16.6177 15.0445 16.5182 14.9711 16.4448C14.8268 16.3005 14.5962 16.2921 14.4357 16.4183C12.8641 17.6536 10.9202 18.3284 8.91429 18.3286C6.55007 18.3286 4.28269 17.3894 2.61093 15.7176C0.939181 14.0459 0 11.7785 0 9.41429C0 7.05007 0.939181 4.78269 2.61093 3.11093C4.28269 1.43918 6.55007 0.5 8.91429 0.5ZM8.91429 3.24286C5.48571 3.24286 2.74286 5.98571 2.74286 9.41429C2.74286 12.8429 5.48571 15.5857 8.91429 15.5857C12.3429 15.5857 15.0857 12.8429 15.0857 9.41429C15.0857 5.98571 12.3429 3.24286 8.91429 3.24286Z" stroke="#0061DF"/>
</svg>
