<svg width="32" height="32" viewBox="0 0 32 32" fill="none" xmlns="http://www.w3.org/2000/svg">
<g clip-path="url(#clip0_1_714)">
<mask id="mask0_1_714" style="mask-type:alpha" maskUnits="userSpaceOnUse" x="2" y="2" width="28" height="28">
<path d="M26.6667 2.66675H5.33335C3.86669 2.66675 2.66669 3.86675 2.66669 5.33341V26.6667C2.66669 28.1334 3.86669 29.3334 5.33335 29.3334H26.6667C28.1334 29.3334 29.3334 28.1334 29.3334 26.6667V5.33341C29.3334 3.86675 28.1334 2.66675 26.6667 2.66675ZM23.6 12.4001C23.4667 18.5334 19.6 22.8001 13.7334 23.0667C11.3334 23.2001 9.60002 22.4001 8.00002 21.4667C9.73335 21.7335 12 21.0668 13.2 20.0001C11.4667 19.8667 10.4 18.9334 9.86669 17.4667C10.4 17.6001 10.9334 17.4667 11.3334 17.4667C9.73335 16.9334 8.66669 16.0001 8.53335 13.8667C8.93335 14.1334 9.46669 14.2667 10 14.2667C8.80002 13.6001 8.00002 11.0667 8.93335 9.46675C10.6667 11.3334 12.8 12.9334 16.2667 13.2001C15.3334 9.46675 20.4001 7.46675 22.4001 10.0001C23.3334 9.86675 24.0001 9.46675 24.6667 9.20008C24.4001 10.1334 23.8667 10.6667 23.2001 11.2001C23.8667 11.0667 24.5334 10.9334 25.0667 10.6667C24.9334 11.3334 24.2667 11.8667 23.6 12.4001Z" fill="#050000"/>
</mask>
<g mask="url(#mask0_1_714)">
<rect width="32" height="32" fill="#2B2B2B"/>
</g>
</g>
<defs>
<clipPath id="clip0_1_714">
<rect width="32" height="32" fill="white"/>
</clipPath>
</defs>
</svg>
